<svg xmlns="http://www.w3.org/2000/svg" version="1.1" xmlns:xlink="http://www.w3.org/1999/xlink" xmlns:svgjs="http://svgjs.dev/svgjs" width="1500" height="1500" viewBox="0 0 1500 1500"><rect width="1500" height="1500" fill="#000000"></rect><g transform="matrix(0.6666666666666666,0,0,0.6666666666666666,249.39393939393938,438.5856950067477)"><svg viewBox="0 0 396 247" data-background-color="#000000" preserveAspectRatio="xMidYMid meet" height="935" width="1500" xmlns="http://www.w3.org/2000/svg" xmlns:xlink="http://www.w3.org/1999/xlink"><g id="tight-bounds" transform="matrix(1,0,0,1,0.2400000000000091,-0.09999999999999432)"><svg viewBox="0 0 395.52 247.2" height="247.2" width="395.52"><g><svg></svg></g><g><svg viewBox="0 0 395.52 247.2" height="247.2" width="395.52"><g transform="matrix(1,0,0,1,75.54432,64.7181778640288)"><svg viewBox="0 0 244.43135999999998 117.76364427194238" height="117.76364427194238" width="244.43135999999998"><g><svg viewBox="0 0 244.43135999999998 117.76364427194238" height="117.76364427194238" width="244.43135999999998"><g><svg viewBox="0 0 244.43135999999998 117.76364427194238" height="117.76364427194238" width="244.43135999999998"><g><svg viewBox="0 0 244.43135999999998 117.76364427194238" height="117.76364427194238" width="244.43135999999998"><g id="textblocktransform"><svg viewBox="0 0 244.43135999999998 117.76364427194238" height="117.76364427194238" width="244.43135999999998" id="textblock"><g><svg viewBox="0 0 244.43135999999998 71.31184979840242" height="71.31184979840242" width="244.43135999999998"><g transform="matrix(1,0,0,1,0,0)"><svg width="244.43135999999998" viewBox="1.71 -36.84 128.35999999999999 37.45" height="71.31184979840242" data-palette-color="#48937e"><path d="M18.19-7.25L18.19-7.25Q18.19-3.56 15.65-1.48 13.11 0.61 8.64 0.61L8.64 0.61Q6.35 0.61 4.41 0.13 2.47-0.34 1.71-0.66L1.71-0.66 1.71-7.3 4.25-7.3 4.86-3.05Q5.62-2.56 6.73-2.11 7.84-1.66 9.3-1.66L9.3-1.66Q11.45-1.66 12.62-2.86 13.79-4.05 13.79-5.54L13.79-5.54Q13.79-7.52 12.38-8.53 10.96-9.55 8.35-10.79L8.35-10.79 7.69-11.11Q4.96-12.4 3.5-13.81 2.05-15.21 2.05-17.46L2.05-17.46Q2.05-20.8 4.39-22.75 6.74-24.71 11.06-24.71L11.06-24.71Q13.26-24.71 14.98-24.3 16.7-23.9 17.46-23.56L17.46-23.56 17.46-17.65 14.84-17.65 14.45-21.14Q13.92-21.56 12.87-21.92 11.82-22.29 10.64-22.29L10.64-22.29Q8.59-22.29 7.59-21.35 6.59-20.41 6.59-18.95L6.59-18.95Q6.59-17.26 7.8-16.27 9.01-15.28 12.18-13.84L12.18-13.84Q14.79-12.65 16.49-11.17 18.19-9.69 18.19-7.25ZM44.5-1.95L44.5 0 37.11 0 36.45-2.95Q36.45-2.95 35.7-2.42 34.96-1.88 33.74-1.17 32.52-0.46 31.04 0.07 29.56 0.61 28.1 0.61L28.1 0.61Q25.39 0.61 23.5-1.2 21.6-3 21.6-6.15L21.6-6.15Q21.6-7.54 22.1-8.74 22.6-9.94 24.11-11.02 25.61-12.11 28.57-13.15 31.54-14.18 36.45-15.26L36.45-15.26 36.45-17.41Q36.45-22.34 31.78-22.34L31.78-22.34Q30.49-22.34 29.55-22.09 28.61-21.85 28.24-21.7L28.24-21.7 28.24-17.36 24.61-17.36Q23.92-17.36 23.34-17.61 22.75-17.87 22.75-18.8L22.75-18.8Q22.75-20.85 24.31-22.16 25.88-23.46 28.28-24.08 30.69-24.71 33.15-24.71L33.15-24.71Q36.25-24.71 37.96-23.74 39.67-22.78 40.35-21.08 41.04-19.38 41.04-17.21L41.04-17.21 41.04-3.2Q41.04-2.73 41.34-2.44 41.65-2.15 42.09-2.1L42.09-2.1 44.5-1.95ZM36.45-4.71L36.45-4.71 36.45-13.35Q33.08-12.52 31.09-11.68 29.1-10.84 28.12-10 27.15-9.16 26.84-8.29 26.54-7.42 26.54-6.49L26.54-6.49Q26.54-4.96 27.52-3.65 28.51-2.34 30.3-2.34L30.3-2.34Q31.3-2.34 32.37-2.7 33.44-3.05 34.37-3.53 35.3-4 35.87-4.36 36.45-4.71 36.45-4.71ZM72.87-1.95L72.87 0 61.74 0 61.74-1.95 63.79-2.1Q64.23-2.15 64.56-2.44 64.89-2.73 64.89-3.2L64.89-3.2 64.89-16.09Q64.89-18.24 63.86-19.64 62.84-21.04 59.93-21.04L59.93-21.04Q58.61-21.04 57.09-20.63 55.56-20.21 54.49-19.6L54.49-19.6 54.49-3.2Q54.49-2.17 55.49-2.1L55.49-2.1 57.64-1.95 57.64 0 46.38 0 46.38-1.95 48.77-2.1Q49.82-2.17 49.82-3.2L49.82-3.2 49.82-33.25 46.09-33.25 46.09-34.91 52.49-36.84 54.49-36.84 54.49-21.61Q55.39-22.17 56.83-22.89 58.27-23.61 59.86-24.16 61.45-24.71 62.74-24.71L62.74-24.71Q65.62-24.71 67.57-22.85 69.53-21 69.53-17.14L69.53-17.14 69.53-3.2Q69.53-2.73 69.86-2.44 70.19-2.15 70.62-2.1L70.62-2.1 72.87-1.95ZM101.43-1.95L101.43 0 93.5 0 93.5-2.86Q92.64-2.2 91.33-1.39 90.01-0.59 88.49 0.01 86.98 0.61 85.49 0.61L85.49 0.61Q82.27 0.61 80.42-1.33 78.58-3.27 78.58-7.5L78.58-7.5 78.58-21.04 75.09-21.04 75.09-22.75 81.24-24.71 83.24-24.71 83.24-8.45Q83.24-5.79 84.33-4.3 85.42-2.81 88.08-2.81L88.08-2.81Q89.62-2.81 91.11-3.33 92.6-3.86 93.5-4.3L93.5-4.3 93.5-21.04 89.98-21.04 89.98-22.75 96.09-24.71 98.14-24.71 98.14-3.2Q98.14-2.73 98.47-2.44 98.8-2.15 99.24-2.1L99.24-2.1 101.43-1.95ZM109.73-30.81L109.73-30.81Q109.73-29.98 109.02-26.15L109.02-26.15 107.68-18.7 106.53-18.7 105.19-26.2Q104.87-27.78 104.75-28.85 104.63-29.91 104.63-30.44L104.63-30.44Q104.63-33.5 107.02-33.5L107.02-33.5Q108.46-33.5 109.1-32.6 109.73-31.71 109.73-30.81ZM130.07-7.25L130.07-7.25Q130.07-3.56 127.53-1.48 124.99 0.61 120.52 0.61L120.52 0.61Q118.22 0.61 116.28 0.13 114.34-0.34 113.59-0.66L113.59-0.66 113.59-7.3 116.13-7.3 116.74-3.05Q117.49-2.56 118.6-2.11 119.71-1.66 121.18-1.66L121.18-1.66Q123.33-1.66 124.5-2.86 125.67-4.05 125.67-5.54L125.67-5.54Q125.67-7.52 124.26-8.53 122.84-9.55 120.23-10.79L120.23-10.79 119.57-11.11Q116.83-12.4 115.38-13.81 113.93-15.21 113.93-17.46L113.93-17.46Q113.93-20.8 116.27-22.75 118.62-24.71 122.94-24.71L122.94-24.71Q125.13-24.71 126.86-24.3 128.58-23.9 129.33-23.56L129.33-23.56 129.33-17.65 126.72-17.65 126.33-21.14Q125.79-21.56 124.74-21.92 123.69-22.29 122.52-22.29L122.52-22.29Q120.47-22.29 119.47-21.35 118.47-20.41 118.47-18.95L118.47-18.95Q118.47-17.26 119.68-16.27 120.89-15.28 124.06-13.84L124.06-13.84Q126.67-12.65 128.37-11.17 130.07-9.69 130.07-7.25Z" opacity="1" transform="matrix(1,0,0,1,0,0)" fill="#48937e" class="wordmark-text-0" data-fill-palette-color="primary" id="text-0"></path></svg></g></svg></g><g transform="matrix(1,0,0,1,0,88.14686605141007)"><svg viewBox="0 0 244.43135999999998 29.616778220532318" height="29.616778220532318" width="244.43135999999998"><g transform="matrix(1,0,0,1,0,0)"><svg width="244.43135999999998" viewBox="0.7 -34 394.46000000000004 47.8" height="29.616778220532318" data-palette-color="#48937e"><path d="M9.8 0.65L9.8 0.65Q7.35 0.65 5.28-0.08 3.2-0.8 1.95-2.1 0.7-3.4 0.7-5.15L0.7-5.15Q0.7-6.3 1.25-7.18 1.8-8.05 2.75-8.05L2.75-8.05Q3.35-8.05 4-7.6L4-7.6Q5.25-6.5 7.23-5.68 9.2-4.85 11.45-4.85L11.45-4.85Q14.4-4.85 16.28-6.03 18.15-7.2 18.15-9.2L18.15-9.2Q18.15-11.1 16.4-11.95 14.65-12.8 11.55-13.55L11.55-13.55Q9.25-14.1 7.13-14.95 5-15.8 3.63-17.32 2.25-18.85 2.25-21.4L2.25-21.4Q2.25-23.35 3.1-25.28 3.95-27.2 5.6-28.8 7.25-30.4 9.6-31.38 11.95-32.35 14.9-32.35L14.9-32.35Q17.1-32.35 18.93-31.85 20.75-31.35 21.83-30.45 22.9-29.55 22.9-28.25L22.9-28.25Q22.9-27.25 22.35-26.5 21.8-25.75 21.05-25.33 20.3-24.9 19.75-24.9L19.75-24.9Q19.25-24.9 18.4-25.35L18.4-25.35Q17-26.1 15.28-26.53 13.55-26.95 12.25-26.95L12.25-26.95Q9.8-26.95 8.28-25.88 6.75-24.8 6.75-23.35L6.75-23.35Q6.75-21.75 8.68-20.68 10.6-19.6 15.6-18.4L15.6-18.4Q19-17.5 20.9-15.93 22.8-14.35 22.8-10.95L22.8-10.95Q22.8-7.9 21.18-5.25 19.55-2.6 16.63-0.98 13.7 0.65 9.8 0.65ZM29.4 0.55L29.4 0.55Q27.6 0.55 27.8-0.65L27.8-0.65Q28.35-2.8 28.72-5.03 29.1-7.25 29.1-9.3L29.1-9.3Q29.1-11.95 28.77-13.18 28.45-14.4 27.9-14.88 27.35-15.35 26.55-15.6L26.55-15.6Q26.2-15.75 25.92-16 25.65-16.25 25.65-16.7L25.65-16.7Q25.65-17.4 26.2-18.25 26.75-19.1 27.77-19.73 28.8-20.35 30.1-20.35L30.1-20.35Q31.8-20.35 32.45-19.18 33.1-18 33.1-16.1L33.1-16.1Q33.1-14.85 32.85-13.3 32.6-11.75 32.35-10.5L32.35-10.5 32.45-10.45Q33.25-13.1 34.42-15.35 35.6-17.6 37.27-19 38.95-20.4 41.15-20.4L41.15-20.4Q43.4-20.4 44.7-18.88 46-17.35 46-14.4L46-14.4 46-13.3Q47.45-16.35 49.52-18.4 51.6-20.45 54.55-20.45L54.55-20.45Q56.95-20.45 58.3-18.85 59.65-17.25 59.65-14.85L59.65-14.85Q59.65-13.9 59.45-13.03 59.25-12.15 59-11.3L59-11.3Q58.8-10.5 58.6-9.65 58.4-8.8 58.4-7.95L58.4-7.95Q58.4-4.95 60.95-4.05L60.95-4.05Q61.3-3.9 61.5-3.73 61.7-3.55 61.7-3.1L61.7-3.1Q61.7-2.65 61.42-1.8 61.15-0.95 60.35-0.23 59.55 0.5 58.05 0.5L58.05 0.5Q56.1 0.5 55.05-0.93 54-2.35 54-4.55L54-4.55Q54-5.65 54.2-6.85 54.4-8.05 54.7-9.15L54.7-9.15Q54.95-10.15 55.12-11.05 55.3-11.95 55.3-12.6L55.3-12.6Q55.3-13.8 54.72-14.35 54.15-14.9 53.2-14.9L53.2-14.9Q51.6-14.9 50.32-13.9 49.05-12.9 48.07-11.3 47.1-9.7 46.4-7.8L46.4-7.8Q46.45-7.35 46.47-6.63 46.5-5.9 46.5-5.35L46.5-5.35Q46.5-4.4 46.37-3.35 46.25-2.3 45.9-1.6L45.9-1.6Q45.5-0.65 44.72-0.05 43.95 0.55 42.65 0.55L42.65 0.55Q42.1 0.55 41.6 0.33 41.1 0.1 41.1-0.4L41.1-0.4Q41.1-0.6 41.4-2.18 41.7-3.75 42-6.05 42.3-8.35 42.3-10.55L42.3-10.55Q42.3-12.95 41.8-13.88 41.3-14.8 40.3-14.8L40.3-14.8Q39.05-14.8 37.92-13.75 36.8-12.7 35.87-11.05 34.95-9.4 34.27-7.6 33.6-5.8 33.2-4.25L33.2-4.25 33.2-3.7Q33.2-1.85 32.17-0.65 31.15 0.55 29.4 0.55ZM71.09 0.65L71.09 0.65Q68.09 0.65 66.27-1.23 64.45-3.1 64.45-6.6L64.45-6.6Q64.45-9.1 65.42-11.58 66.4-14.05 68.25-16.05 70.09-18.05 72.7-19.25 75.3-20.45 78.55-20.45L78.55-20.45Q81.55-20.45 83.67-19.43 85.8-18.4 85.8-16.65L85.8-16.65Q85.8-16.2 85.7-15.48 85.59-14.75 85.45-14.3L85.45-14.3Q85.3-13.9 85.02-13.58 84.75-13.25 84.3-13.25L84.3-13.25Q84.09-13.25 83.55-13.4L83.55-13.4Q83.34-12.35 83.25-11.35 83.15-10.35 83.15-9.35L83.15-9.35Q83.15-7.45 83.72-5.98 84.3-4.5 86-4.15L86-4.15Q86.45-4.05 86.72-3.85 87-3.65 87-3L87-3Q87-2.45 86.72-1.6 86.45-0.75 85.67-0.08 84.9 0.6 83.45 0.6L83.45 0.6Q81.5 0.6 80.45-0.83 79.4-2.25 79.4-4.9L79.4-4.9Q78.05-2.45 75.97-0.9 73.9 0.65 71.09 0.65ZM72.7-4.55L72.7-4.55Q74.7-4.55 76.22-5.8 77.75-7.05 78.59-8.95L78.59-8.95Q79.15-10.15 79.45-11.58 79.75-13 79.84-14.4L79.84-14.4Q79-14.8 77.9-15.05 76.8-15.3 75.59-15.3L75.59-15.3Q72.55-15.3 70.57-13.5 68.59-11.7 68.59-9L68.59-9Q68.59-7 69.7-5.78 70.8-4.55 72.7-4.55ZM93.09 0.55L93.09 0.55Q92.29 0.55 91.82 0.28 91.34 0 91.49-0.65L91.49-0.65Q92.04-2.8 92.42-5.03 92.79-7.25 92.79-9.3L92.79-9.3Q92.79-11.95 92.47-13.18 92.14-14.4 91.59-14.88 91.04-15.35 90.24-15.6L90.24-15.6Q89.89-15.75 89.62-16 89.34-16.25 89.34-16.7L89.34-16.7Q89.34-17.4 89.89-18.25 90.44-19.1 91.44-19.73 92.44-20.35 93.74-20.35L93.74-20.35Q95.44-20.35 96.12-19.18 96.79-18 96.79-16.1L96.79-16.1Q97.69-18.1 99.02-19.28 100.34-20.45 102.34-20.45L102.34-20.45Q103.69-20.45 104.59-19.85 105.49-19.25 105.49-17.9L105.49-17.9Q105.49-16.55 104.62-15.38 103.74-14.2 102.84-14.2L102.84-14.2Q102.69-14.2 102.49-14.25 102.29-14.3 102.14-14.5L102.14-14.5Q101.49-15.3 100.54-15.3L100.54-15.3Q99.09-15.3 97.99-13.4 96.89-11.5 96.79-8.15L96.79-8.15Q96.84-6.9 96.87-5.6 96.89-4.3 96.89-3.7L96.89-3.7Q96.89-1.85 95.87-0.65 94.84 0.55 93.09 0.55ZM114.04 0.65L114.04 0.65Q110.99 0.65 109.67-1.38 108.34-3.4 108.34-6.6L108.34-6.6Q108.34-7.75 108.47-8.85 108.59-9.95 108.74-11.05L108.74-11.05Q108.89-12.15 109.04-13.2 109.19-14.25 109.29-15.2L109.29-15.2Q108.24-14.9 107.19-14.9L107.19-14.9Q106.09-14.9 106.09-15.8L106.09-15.8Q106.09-16.75 106.94-18.13 107.79-19.5 109.07-20.85 110.34-22.2 111.62-23.13 112.89-24.05 113.79-24.05L113.79-24.05Q114.89-24.05 114.89-22.15L114.89-22.15Q114.89-21.65 114.82-21.13 114.74-20.6 114.64-20.05L114.64-20.05Q115.59-20.25 116.57-20.4 117.54-20.55 118.44-20.55L118.44-20.55Q119.59-20.55 120.22-20.15 120.84-19.75 120.84-18.6L120.84-18.6Q120.84-17.4 120.27-16.2 119.69-15 118.99-15L118.99-15Q118.84-15 118.49-15.05 118.14-15.1 117.64-15.2L117.64-15.2Q116.99-15.35 115.99-15.5 114.99-15.65 113.59-15.65L113.59-15.65Q113.24-14.1 112.97-12.48 112.69-10.85 112.69-9.55L112.69-9.55Q112.69-6.65 114.14-5.6 115.59-4.55 118.34-4.55L118.34-4.55Q119.19-4.55 119.54-4.28 119.89-4 119.89-3.3L119.89-3.3Q119.89-1.65 118.19-0.5 116.49 0.65 114.04 0.65ZM123.79-7.65L123.79-7.65Q123.04-7.65 123.04-9.1L123.04-9.1Q123.04-9.95 123.21-10.88 123.39-11.8 123.79-12.4L123.79-12.4Q123.89-12.55 124.14-12.73 124.39-12.9 124.84-12.9L124.84-12.9 135.64-12.9Q136.24-12.9 136.41-12.63 136.59-12.35 136.59-11.8L136.59-11.8Q136.59-11.25 136.44-10.4 136.29-9.55 135.94-8.9 135.59-8.25 134.99-8.25L134.99-8.25 130.54-8.25Q128.79-8.25 127.34-8.1 125.89-7.95 124.94-7.8L124.94-7.8Q124.19-7.65 123.79-7.65ZM148.24 0.65L148.24 0.65Q146.39 0.65 144.84 0.3 143.29-0.05 142.29-1L142.29-1Q141.54-1.7 141.29-2.58 141.04-3.45 141.04-4.5L141.04-4.5Q141.04-6.2 141.34-7.9L141.34-7.9Q141.79-10.85 142.14-14.25 142.49-17.65 142.49-20.55L142.49-20.55Q142.49-21.45 142.41-22.6 142.34-23.75 142.19-24.75L142.19-24.75Q141.84-24.6 141.51-24.48 141.19-24.35 140.94-24.35L140.94-24.35Q140.49-24.35 140.34-24.8 140.19-25.25 140.19-25.8L140.19-25.8Q140.19-27.25 140.86-28.28 141.54-29.3 143.09-30.1L143.09-30.1Q144.74-31 147.41-31.68 150.09-32.35 152.84-32.35L152.84-32.35Q159.09-32.35 162.66-28.68 166.24-25 166.24-18.25L166.24-18.25Q166.24-14.4 165.06-10.98 163.89-7.55 161.59-4.93 159.29-2.3 155.94-0.83 152.59 0.65 148.24 0.65ZM149.84-4.95L149.84-4.95Q152.09-4.95 154.34-5.65 156.59-6.35 158.41-7.75 160.24-9.15 161.34-11.33 162.44-13.5 162.44-16.55L162.44-16.55Q162.44-20 161.09-22.25 159.74-24.5 157.49-25.6 155.24-26.7 152.49-26.7L152.49-26.7Q150.99-26.7 149.51-26.45 148.04-26.2 147.19-25.95L147.19-25.95Q147.14-23.65 146.91-21.48 146.69-19.3 146.39-17.25L146.39-17.25Q146.09-15.1 145.91-13.05 145.74-11 145.74-9L145.74-9Q145.74-6.5 146.76-5.73 147.79-4.95 149.84-4.95ZM177.18 0.65L177.18 0.65Q173.38 0.65 171.26-1.53 169.13-3.7 169.13-7.6L169.13-7.6Q169.13-11.15 170.68-14.05 172.23-16.95 174.86-18.68 177.48-20.4 180.63-20.4L180.63-20.4Q183.63-20.4 185.43-18.93 187.23-17.45 187.23-15L187.23-15Q187.23-13.05 186.03-11.4 184.83-9.75 182.83-8.78 180.83-7.8 178.38-7.8L178.38-7.8Q175.38-7.8 173.48-9.15L173.48-9.15Q173.53-6.85 175.06-5.45 176.58-4.05 178.98-4.05L178.98-4.05Q180.43-4.05 181.96-4.58 183.48-5.1 184.58-6L184.58-6Q185.28-6.6 185.88-6.6L185.88-6.6Q186.38-6.6 186.71-6.28 187.03-5.95 187.03-5.45L187.03-5.45Q187.03-4.35 185.13-2.55L185.13-2.55Q181.78 0.65 177.18 0.65ZM177.93-11.1L177.93-11.1Q179.73-11.1 180.93-11.85 182.13-12.6 182.13-13.75L182.13-13.75Q182.13-14.7 181.33-15.23 180.53-15.75 179.13-15.75L179.13-15.75Q177.28-15.75 175.91-14.78 174.53-13.8 173.93-12.05L173.93-12.05Q174.63-11.6 175.73-11.35 176.83-11.1 177.93-11.1ZM198.13 0.7L198.13 0.7Q196.78 0.7 195.81-0.13 194.83-0.95 194.63-3.2L194.63-3.2Q194.53-4.9 194.21-6.95 193.88-9 193.38-10.85 192.88-12.7 192.23-13.75L192.23-13.75Q191.88-14.3 191.46-14.58 191.03-14.85 190.18-14.95L190.18-14.95Q189.63-15 189.43-15.3 189.23-15.6 189.23-16.25L189.23-16.25Q189.23-18.3 190.36-19.28 191.48-20.25 192.93-20.25L192.93-20.25Q194.43-20.25 195.43-19.28 196.43-18.3 196.98-16.7 197.53-15.1 197.75-13.18 197.98-11.25 197.98-9.3L197.98-9.3Q197.98-8.5 197.96-7.63 197.93-6.75 197.93-6.15L197.93-6.15Q197.93-5.6 198.16-5.3 198.38-5 199.03-5L199.03-5Q199.83-5 200.88-5.48 201.93-5.95 202.96-6.85 203.98-7.75 204.66-8.97 205.33-10.2 205.33-11.7L205.33-11.7Q205.33-12.55 205.06-13.5 204.78-14.45 204.18-15.1L204.18-15.1Q203.58-15.75 203.31-16.13 203.03-16.5 203.03-17L203.03-17Q203.03-17.9 203.86-18.65 204.68-19.4 205.81-19.85 206.93-20.3 207.78-20.3L207.78-20.3Q209.23-20.3 209.63-19.1 210.03-17.9 210.03-16.45L210.03-16.45Q210.03-13.7 209.03-10.7 208.03-7.7 206.33-5.1 204.63-2.5 202.5-0.9 200.38 0.7 198.13 0.7ZM221.03 0.65L221.03 0.65Q217.23 0.65 215.1-1.53 212.98-3.7 212.98-7.6L212.98-7.6Q212.98-11.15 214.53-14.05 216.08-16.95 218.7-18.68 221.33-20.4 224.48-20.4L224.48-20.4Q227.48-20.4 229.28-18.93 231.08-17.45 231.08-15L231.08-15Q231.08-13.05 229.88-11.4 228.68-9.75 226.68-8.78 224.68-7.8 222.23-7.8L222.23-7.8Q219.23-7.8 217.33-9.15L217.33-9.15Q217.38-6.85 218.9-5.45 220.43-4.05 222.83-4.05L222.83-4.05Q224.28-4.05 225.8-4.58 227.33-5.1 228.43-6L228.43-6Q229.13-6.6 229.73-6.6L229.73-6.6Q230.23-6.6 230.55-6.28 230.88-5.95 230.88-5.45L230.88-5.45Q230.88-4.35 228.98-2.55L228.98-2.55Q225.63 0.65 221.03 0.65ZM221.78-11.1L221.78-11.1Q223.58-11.1 224.78-11.85 225.98-12.6 225.98-13.75L225.98-13.75Q225.98-14.7 225.18-15.23 224.38-15.75 222.98-15.75L222.98-15.75Q221.13-15.75 219.75-14.78 218.38-13.8 217.78-12.05L217.78-12.05Q218.48-11.6 219.58-11.35 220.68-11.1 221.78-11.1ZM238.22 0.5L238.22 0.5Q236.78 0.5 236.07-0.3 235.38-1.1 235.38-3.1L235.38-3.1Q235.38-4.05 235.53-5.55 235.68-7.05 235.88-8.8L235.88-8.8Q236.18-10.95 236.4-13.3 236.63-15.65 236.63-17.8L236.63-17.8Q236.63-20.85 236.35-24.13 236.07-27.4 234.82-29.85L234.82-29.85Q234.38-30.85 234.38-31.3L234.38-31.3Q234.38-31.95 234.95-32.55 235.53-33.15 236.38-33.58 237.22-34 238.03-34L238.03-34Q239.32-34 239.97-32.83 240.63-31.65 240.82-29.63 241.03-27.6 241.03-25L241.03-25Q241.03-21.05 240.7-18.15 240.38-15.25 240.07-13.05L240.07-13.05Q239.88-11.6 239.7-10.3 239.53-9 239.53-7.95L239.53-7.95Q239.53-6.2 240.1-5.43 240.68-4.65 241.97-3.9L241.97-3.9Q242.32-3.7 242.5-3.53 242.68-3.35 242.68-3L242.68-3Q242.68-2.6 242.28-1.75 241.88-0.9 240.9-0.2 239.93 0.5 238.22 0.5ZM253.82 0.65L253.82 0.65Q250.37 0.65 248.3-1.23 246.22-3.1 246.22-6.75L246.22-6.75Q246.22-8.45 246.7-10.05 247.17-11.65 247.97-13.05L247.97-13.05Q247.17-12.55 246.77-12.55L246.77-12.55Q246.17-12.55 245.95-13.23 245.72-13.9 245.72-14.55L245.72-14.55Q245.72-15.7 246.2-16.38 246.67-17.05 247.12-17.4L247.12-17.4Q248.17-18.3 250.42-19.38 252.67-20.45 255.82-20.45L255.82-20.45Q260.12-20.45 262.5-18.05 264.87-15.65 264.87-11.35L264.87-11.35Q264.87-8 263.47-5.28 262.07-2.55 259.6-0.95 257.12 0.65 253.82 0.65ZM255.37-4.45L255.37-4.45Q257.87-4.45 259.6-6.03 261.32-7.6 261.32-10.2L261.32-10.2Q261.32-12.9 259.57-14.05 257.82-15.2 255.52-15.2L255.52-15.2Q254.47-15.2 253.62-15 252.77-14.8 252.02-14.5L252.02-14.5Q251.32-13.5 250.77-12.25 250.22-11 250.22-9.5L250.22-9.5Q250.22-7 251.72-5.73 253.22-4.45 255.37-4.45ZM271.57 13.8L271.57 13.8Q270.07 13.8 269.22 12.98 268.37 12.15 268.37 10L268.37 10Q268.37 8.55 268.69 6.35 269.02 4.15 269.47 1.7L269.47 1.7Q269.82-0.25 270.14-2.4 270.47-4.55 270.69-6.63 270.92-8.7 270.92-10.35L270.92-10.35Q270.92-12.25 270.5-13.65 270.07-15.05 268.77-15.45L268.77-15.45Q268.27-15.65 267.87-15.9 267.47-16.15 267.47-16.7L267.47-16.7Q267.47-17.4 268.02-18.25 268.57-19.1 269.59-19.73 270.62-20.35 271.92-20.35L271.92-20.35Q273.62-20.35 274.27-19.18 274.92-18 274.92-16.1L274.92-16.1Q274.92-15.55 274.87-14.98 274.82-14.4 274.72-13.8L274.72-13.8Q276.17-16.6 278.54-18.53 280.92-20.45 283.92-20.45L283.92-20.45Q286.92-20.45 288.64-18.43 290.37-16.4 290.37-12.95L290.37-12.95Q290.37-10.4 289.57-7.98 288.77-5.55 287.32-3.6 285.87-1.65 283.84-0.5 281.82 0.65 279.32 0.65L279.32 0.65Q277.52 0.65 276.17 0.03 274.82-0.6 273.82-1.6L273.82-1.6Q273.62-0.3 273.44 1.55 273.27 3.4 273.27 5L273.27 5Q273.27 6.85 273.69 7.9 274.12 8.95 275.37 9.5L275.37 9.5Q275.92 9.75 275.92 10.3L275.92 10.3Q275.92 10.7 275.52 11.55 275.12 12.4 274.19 13.1 273.27 13.8 271.57 13.8ZM280.47-4.75L280.47-4.75Q283.32-4.75 284.87-6.55 286.42-8.35 286.42-10.7L286.42-10.7Q286.42-12.75 285.32-13.88 284.22-15 282.37-15L282.37-15Q280.47-15 279.02-13.88 277.57-12.75 276.54-10.95 275.52-9.15 274.87-7.1L274.87-7.1Q277.37-4.75 280.47-4.75ZM297.02 0.55L297.02 0.55Q295.22 0.55 295.42-0.65L295.42-0.65Q295.97-2.8 296.34-5.03 296.72-7.25 296.72-9.3L296.72-9.3Q296.72-11.95 296.39-13.18 296.07-14.4 295.52-14.88 294.97-15.35 294.17-15.6L294.17-15.6Q293.82-15.75 293.54-16 293.27-16.25 293.27-16.7L293.27-16.7Q293.27-17.4 293.82-18.25 294.37-19.1 295.39-19.73 296.42-20.35 297.72-20.35L297.72-20.35Q299.42-20.35 300.07-19.18 300.72-18 300.72-16.1L300.72-16.1Q300.72-14.85 300.47-13.3 300.22-11.75 299.97-10.5L299.97-10.5 300.07-10.45Q300.87-13.1 302.04-15.35 303.22-17.6 304.89-19 306.57-20.4 308.77-20.4L308.77-20.4Q311.02-20.4 312.32-18.88 313.62-17.35 313.62-14.4L313.62-14.4 313.62-13.3Q315.07-16.35 317.14-18.4 319.22-20.45 322.17-20.45L322.17-20.45Q324.57-20.45 325.92-18.85 327.27-17.25 327.27-14.85L327.27-14.85Q327.27-13.9 327.07-13.03 326.87-12.15 326.62-11.3L326.62-11.3Q326.42-10.5 326.22-9.65 326.02-8.8 326.02-7.95L326.02-7.95Q326.02-4.95 328.57-4.05L328.57-4.05Q328.92-3.9 329.12-3.73 329.32-3.55 329.32-3.1L329.32-3.1Q329.32-2.65 329.04-1.8 328.77-0.95 327.97-0.23 327.17 0.5 325.67 0.5L325.67 0.5Q323.72 0.5 322.67-0.93 321.62-2.35 321.62-4.55L321.62-4.55Q321.62-5.65 321.82-6.85 322.02-8.05 322.32-9.15L322.32-9.15Q322.57-10.15 322.74-11.05 322.92-11.95 322.92-12.6L322.92-12.6Q322.92-13.8 322.34-14.35 321.77-14.9 320.82-14.9L320.82-14.9Q319.22-14.9 317.94-13.9 316.67-12.9 315.69-11.3 314.72-9.7 314.02-7.8L314.02-7.8Q314.07-7.35 314.09-6.63 314.12-5.9 314.12-5.35L314.12-5.35Q314.12-4.4 313.99-3.35 313.87-2.3 313.52-1.6L313.52-1.6Q313.12-0.65 312.34-0.05 311.57 0.55 310.27 0.55L310.27 0.55Q309.72 0.55 309.22 0.33 308.72 0.1 308.72-0.4L308.72-0.4Q308.72-0.6 309.02-2.18 309.32-3.75 309.62-6.05 309.92-8.35 309.92-10.55L309.92-10.55Q309.92-12.95 309.42-13.88 308.92-14.8 307.92-14.8L307.92-14.8Q306.67-14.8 305.54-13.75 304.42-12.7 303.49-11.05 302.57-9.4 301.89-7.6 301.22-5.8 300.82-4.25L300.82-4.25 300.82-3.7Q300.82-1.85 299.79-0.65 298.77 0.55 297.02 0.55ZM340.37 0.65L340.37 0.65Q336.56 0.65 334.44-1.53 332.31-3.7 332.31-7.6L332.31-7.6Q332.31-11.15 333.87-14.05 335.42-16.95 338.04-18.68 340.67-20.4 343.81-20.4L343.81-20.4Q346.81-20.4 348.62-18.93 350.42-17.45 350.42-15L350.42-15Q350.42-13.05 349.22-11.4 348.01-9.75 346.01-8.78 344.01-7.8 341.56-7.8L341.56-7.8Q338.56-7.8 336.67-9.15L336.67-9.15Q336.72-6.85 338.24-5.45 339.76-4.05 342.17-4.05L342.17-4.05Q343.62-4.05 345.14-4.58 346.67-5.1 347.76-6L347.76-6Q348.47-6.6 349.06-6.6L349.06-6.6Q349.56-6.6 349.89-6.28 350.22-5.95 350.22-5.45L350.22-5.45Q350.22-4.35 348.31-2.55L348.31-2.55Q344.97 0.65 340.37 0.65ZM341.12-11.1L341.12-11.1Q342.92-11.1 344.12-11.85 345.31-12.6 345.31-13.75L345.31-13.75Q345.31-14.7 344.51-15.23 343.72-15.75 342.31-15.75L342.31-15.75Q340.47-15.75 339.09-14.78 337.72-13.8 337.12-12.05L337.12-12.05Q337.81-11.6 338.92-11.35 340.01-11.1 341.12-11.1ZM357.06 0.55L357.06 0.55Q355.26 0.55 355.46-0.65L355.46-0.65Q356.01-2.8 356.39-5.03 356.76-7.25 356.76-9.3L356.76-9.3Q356.76-11.95 356.44-13.18 356.11-14.4 355.56-14.88 355.01-15.35 354.21-15.6L354.21-15.6Q353.86-15.75 353.59-16 353.31-16.25 353.31-16.7L353.31-16.7Q353.31-17.4 353.86-18.25 354.41-19.1 355.44-19.73 356.46-20.35 357.76-20.35L357.76-20.35Q359.46-20.35 360.11-19.18 360.76-18 360.76-16.1L360.76-16.1Q360.76-14.85 360.51-13.3 360.26-11.75 360.01-10.5L360.01-10.5 360.16-10.45Q361.16-13.1 362.59-15.38 364.01-17.65 365.91-19.05 367.81-20.45 370.31-20.45L370.31-20.45Q372.96-20.45 374.36-18.85 375.76-17.25 375.76-14.85L375.76-14.85Q375.76-13.85 375.54-12.95 375.31-12.05 375.06-11.2L375.06-11.2Q374.81-10.4 374.64-9.55 374.46-8.7 374.46-7.85L374.46-7.85Q374.46-5 377.16-4L377.16-4Q377.86-3.7 377.86-3.1L377.86-3.1Q377.86-2.65 377.56-1.8 377.26-0.95 376.46-0.23 375.66 0.5 374.11 0.5L374.11 0.5Q372.11 0.5 371.01-0.93 369.91-2.35 369.91-4.55L369.91-4.55Q369.91-5.8 370.19-7.08 370.46-8.35 370.76-9.45L370.76-9.45Q370.96-10.3 371.14-11.13 371.31-11.95 371.31-12.6L371.31-12.6Q371.31-14.9 368.91-14.9L368.91-14.9Q366.86-14.9 365.31-13.38 363.76-11.85 362.66-9.55 361.56-7.25 360.86-4.9L360.86-4.9 360.86-3.7Q360.86-1.85 359.84-0.65 358.81 0.55 357.06 0.55ZM388.36 0.65L388.36 0.65Q385.31 0.65 383.99-1.38 382.66-3.4 382.66-6.6L382.66-6.6Q382.66-7.75 382.79-8.85 382.91-9.95 383.06-11.05L383.06-11.05Q383.21-12.15 383.36-13.2 383.51-14.25 383.61-15.2L383.61-15.2Q382.56-14.9 381.51-14.9L381.51-14.9Q380.41-14.9 380.41-15.8L380.41-15.8Q380.41-16.75 381.26-18.13 382.11-19.5 383.39-20.85 384.66-22.2 385.94-23.13 387.21-24.05 388.11-24.05L388.11-24.05Q389.21-24.05 389.21-22.15L389.21-22.15Q389.21-21.65 389.14-21.13 389.06-20.6 388.96-20.05L388.96-20.05Q389.91-20.25 390.89-20.4 391.86-20.55 392.76-20.55L392.76-20.55Q393.91-20.55 394.54-20.15 395.16-19.75 395.16-18.6L395.16-18.6Q395.16-17.4 394.59-16.2 394.01-15 393.31-15L393.31-15Q393.16-15 392.81-15.05 392.46-15.1 391.96-15.2L391.96-15.2Q391.31-15.35 390.31-15.5 389.31-15.65 387.91-15.65L387.91-15.65Q387.56-14.1 387.29-12.48 387.01-10.85 387.01-9.55L387.01-9.55Q387.01-6.65 388.46-5.6 389.91-4.55 392.66-4.55L392.66-4.55Q393.51-4.55 393.86-4.28 394.21-4 394.21-3.3L394.21-3.3Q394.21-1.65 392.51-0.5 390.81 0.65 388.36 0.65Z" opacity="1" transform="matrix(1,0,0,1,0,0)" fill="#48937e" class="slogan-text-1" data-fill-palette-color="secondary" id="text-1"></path></svg></g></svg></g></svg></g></svg></g></svg></g></svg></g></svg></g><g><path d="M245.816 0c68.262 0 123.6 55.338 123.6 123.6 0 68.262-55.338 123.6-123.6 123.6-43.441 0-81.647-22.41-103.689-56.301h3.858c21.633 32.027 58.273 53.085 99.831 53.086 66.487 0 120.385-53.898 120.384-120.385 0-66.487-53.898-120.385-120.384-120.385-41.558 0-78.197 21.058-99.831 53.086h-3.858c22.042-33.89 60.248-56.301 103.689-56.301z" fill="#48937e" stroke="transparent" data-fill-palette-color="tertiary"></path></g></svg></g><defs></defs></svg><rect width="395.52" height="247.2" fill="none" stroke="none" visibility="hidden"></rect></g></svg></g></svg>